<svg xmlns="http://www.w3.org/2000/svg" xmlns:xlink="http://www.w3.org/1999/xlink" width="192" zoomAndPan="magnify" viewBox="0 0 144 143.999998" height="192" preserveAspectRatio="xMidYMid meet" version="1.0"><defs><clipPath id="7c47bc0c74"><path d="M 7.5 18 L 136 18 L 136 85 L 7.5 85 Z M 7.5 18 " clip-rule="nonzero"/></clipPath><clipPath id="f14b7e7658"><path d="M 7.5 69 L 136 69 L 136 106 L 7.5 106 Z M 7.5 69 " clip-rule="nonzero"/></clipPath><clipPath id="005f3586c8"><path d="M 7.5 89 L 136 89 L 136 125.820312 L 7.5 125.820312 Z M 7.5 89 " clip-rule="nonzero"/></clipPath></defs><g clip-path="url(#7c47bc0c74)"><path fill="#00bc7d" d="M 9.171875 53.773438 L 70.722656 84.546875 C 71.082031 84.726562 71.476562 84.816406 71.871094 84.816406 C 72.261719 84.816406 72.65625 84.726562 73.015625 84.546875 L 134.566406 53.773438 C 135.4375 53.335938 135.984375 52.449219 135.984375 51.476562 C 135.984375 50.503906 135.4375 49.617188 134.566406 49.183594 L 73.015625 18.40625 C 72.296875 18.046875 71.445312 18.046875 70.722656 18.40625 L 9.171875 49.183594 C 8.304688 49.617188 7.753906 50.503906 7.753906 51.476562 C 7.753906 52.449219 8.304688 53.335938 9.171875 53.773438 Z M 71.871094 23.570312 L 127.6875 51.476562 L 71.871094 79.386719 L 16.054688 51.476562 Z M 71.871094 23.570312 " fill-opacity="1" fill-rule="nonzero"/></g><g clip-path="url(#f14b7e7658)"><path fill="#00bc7d" d="M 132.273438 69.699219 L 71.871094 99.902344 L 11.464844 69.699219 C 10.195312 69.0625 8.65625 69.582031 8.023438 70.84375 C 7.390625 72.113281 7.902344 73.652344 9.171875 74.289062 L 70.722656 105.0625 C 71.082031 105.246094 71.476562 105.335938 71.871094 105.335938 C 72.261719 105.335938 72.65625 105.246094 73.015625 105.066406 L 134.566406 74.289062 C 135.835938 73.65625 136.347656 72.113281 135.714844 70.847656 C 135.078125 69.582031 133.542969 69.066406 132.273438 69.699219 Z M 132.273438 69.699219 " fill-opacity="1" fill-rule="nonzero"/></g><g clip-path="url(#005f3586c8)"><path fill="#00bc7d" d="M 132.273438 90.214844 L 71.871094 120.417969 L 11.464844 90.214844 C 10.195312 89.585938 8.65625 90.097656 8.023438 91.363281 C 7.390625 92.628906 7.902344 94.171875 9.171875 94.804688 L 70.722656 125.578125 C 71.082031 125.761719 71.476562 125.851562 71.871094 125.851562 C 72.261719 125.851562 72.65625 125.761719 73.015625 125.582031 L 134.566406 94.804688 C 135.835938 94.171875 136.347656 92.632812 135.714844 91.363281 C 135.078125 90.097656 133.542969 89.585938 132.273438 90.214844 Z M 132.273438 90.214844 " fill-opacity="1" fill-rule="nonzero"/></g></svg>